HIERARCHY
ROOT ui
{
	 OFFSET 0 0 0
	 CHANNELS 3 XPosition YPosition Z Position
	 EndSite
	 {
	 OFFSET 0 -1 0
	 }
}
ROOT li
{
	 OFFSET 0 0 0
	 CHANNELS 3 XPosition YPosition Z Position
	 EndSite
	 {
	 OFFSET 0 -1 0
	 }
}
ROOT ul
{
	 OFFSET 0 0 0
	 CHANNELS 3 XPosition YPosition Z Position
	 EndSite
	 {
	 OFFSET 0 -1 0
	 }
}
ROOT ll
{
	 OFFSET 0 0 0
	 CHANNELS 3 XPosition YPosition Z Position
	 EndSite
	 {
	 OFFSET 0 -1 0
	 }
}
ROOT tt
{
	 OFFSET 0 0 0
	 CHANNELS 3 XPosition YPosition Z Position
	 EndSite
	 {
	 OFFSET 0 -1 0
	 }
}
ROOT tb
{
	 OFFSET 0 0 0
	 CHANNELS 3 XPosition YPosition Z Position
	 EndSite
	 {
	 OFFSET 0 -1 0
	 }
}
ROOT td
{
	 OFFSET 0 0 0
	 CHANNELS 3 XPosition YPosition Z Position
	 EndSite
	 {
	 OFFSET 0 -1 0
	 }
}
ROOT v
{
	 OFFSET 0 0 0
	 CHANNELS 3 XPosition YPosition Z Position
	 EndSite
	 {
	 OFFSET 0 -1 0
	 }
}
ROOT bn
{
	 OFFSET 0 0 0
	 CHANNELS 3 XPosition YPosition Z Position
	 EndSite
	 {
	 OFFSET 0 -1 0
	 }
}
MOTION
Frames: 16
Frame Time: 0.002
0.006808606147766114	-9.704599976539612E-4	0		0.4707751159667969	-2.36327783203125	0		-1.081781494140625	0.03735209274291992	0		-0.5951580810546875	-2.655281982421875	0		2.0154791259765625	-0.79946142578125	0		3.451930908203125	0.21373123168945313	0		4.77369775390625	0.33935568237304686	0		6.0118662109375	0.4960824584960937	0		-0.17279776000976563	5.8839013671875	0		
0.014689526557922362	-0.002098489999771118	0		0.476724853515625	-2.356387451171875	0		-1.069610595703125	0.0581863899230957	0		-0.626183349609375	-2.6458876953125	0		2.0037181396484374	-0.7723597412109375	0		3.442330322265625	0.2517833251953125	0		4.75790185546875	0.3624675598144531	0		6.01199267578125	0.5129649047851562	0		-0.20688760375976561	5.87832958984375	0		
0.00969847583770752	0.0019194740056991577	0		0.4636925354003906	-2.35326953125	0		-1.041524658203125	0.06778209686279296	0		-0.602222412109375	-2.643244140625	0		1.9838770751953125	-0.7561693725585937	0		3.38706982421875	0.23542030334472655	0		4.7396923828125	0.3496003723144531	0		6.00274462890625	0.4969639892578125	0		-0.18890101623535155	5.8750478515625	0		
-0.003204206943511963	0.00802027130126953	0		0.4548077697753906	-2.344225830078125	0		-1.0815035400390625	0.06824906921386718	0		-0.6412127075195313	-2.64179443359375	0		1.96900732421875	-0.7470603637695312	0		3.387089111328125	0.235319580078125	0		4.72462158203125	0.34268588256835936	0		6.00276611328125	0.49683963012695315	0		-0.07166954803466796	5.8864345703125	0		
0.011686285018920899	-0.0062675089836120605	0		0.46375015258789065	-2.353437744140625	0		-0.9634500732421875	0.06560757446289063	0		-0.6062216796875	-2.647343017578125	0		1.9523446044921875	-0.7269410400390625	0		3.383088134765625	0.22926078796386717	0		4.709609375	0.3357640380859375	0		6.002845703125	0.4967112731933594	0		-0.18970455932617186	5.87590234375	0		
0.01181906795501709	-0.006378293991088867	0		0.4659126892089844	-2.3505771484375	0		-1.11811865234375	0.08154576873779297	0		-0.6301373291015625	-2.650134033203125	0		1.9187281494140624	-0.7076126708984375	0		3.379314697265625	0.23618826293945314	0		4.698744140625	0.335779052734375	0		6.011966796875	0.4954570007324219	0		-0.1905341796875	5.8768056640625	0		
-0.0028106040954589844	0.007689755916595459	0		0.4882198486328125	-2.34099853515625	0		-1.0188636474609376	0.0861126708984375	0		-0.6368021240234375	-2.638169677734375	0		1.905215087890625	-0.6845643920898438	0		3.369421142578125	0.23018182373046875	0		4.69383740234375	0.3287026672363281	0		6.00415283203125	0.4954156494140625	0		-0.20925131225585938	5.882927734375	0		
0.012232032775878907	-0.00665175199508667	0		0.46148397827148435	-2.337788330078125	0		-1.0635513916015624	0.09256473541259766	0		-0.636580810546875	-2.6383125	0		1.8886944580078124	-0.6654915771484375	0		3.37371630859375	0.23497433471679688	0		4.6809892578125	0.3227168884277344	0		6.003396484375	0.49626702880859375	0		-0.17494264221191405	5.88733447265625	0		
0.012497111320495606	-0.006809861183166504	0		0.5156702880859375	-2.343660888671875	0		-1.030236083984375	0.09597403717041016	0		-0.6013939208984375	-2.64393017578125	0		1.8505418701171874	-0.621144775390625	0		3.340919189453125	0.2302410125732422	0		4.662072265625	0.3087948913574219	0		6.00366357421875	0.4960882873535156	0		-0.19077474975585937	5.87838916015625	0		
-0.028022809982299803	0.0075621681213378904	0		0.4599820556640625	-2.341092041015625	0		-1.0767550048828125	0.1104302749633789	0		-0.6509915161132812	-2.63443603515625	0		1.8508304443359376	-0.621322021484375	0		3.326212890625	0.23025497436523437	0		4.646287109375	0.30281634521484374	0		6.00083837890625	0.486931884765625	0		-0.19144219970703125	5.879234375	0		
0.013096282005310059	-0.007153897762298584	0		0.47120730590820314	-2.346415283203125	0		-1.067341552734375	0.11814228820800782	0		-0.6268883666992188	-2.648923095703125	0		1.816216552734375	-0.61504736328125	0		3.335085205078125	0.1969415740966797	0		4.6363994140625	0.2877439270019531	0		6.0062548828125	0.49465017700195313	0		-0.17399148559570313	5.8868349609375	0		
-0.0024422340393066406	0.003878227949142456	0		0.4417283935546875	-2.32920263671875	0		-1.0818790283203126	0.12917088317871095	0		-0.6334381713867188	-2.63700439453125	0		1.8117906494140625	-0.595177734375	0		3.3338779296875	0.23275645446777343	0		4.64282177734375	0.2954437255859375	0		6.0145732421875	0.4943119201660156	0		-0.17461068725585938	5.8876708984375	0		
-0.0010898900032043457	0.00668690013885498	0		0.4939161376953125	-2.33707373046875	0		-1.0475015869140625	0.13355519104003907	0		-0.646076171875	-2.631003173828125	0		1.798203369140625	-0.5871923828125	0		3.306718994140625	0.19689973449707032	0		4.62395458984375	0.28146359252929687	0		6.001787109375	0.48623553466796876	0		-0.22639573669433594	5.87518505859375	0		
-0.011972450256347656	-0.007339844226837158	0		0.4651853332519531	-2.33687060546875	0		-1.0821414794921875	0.13786085510253906	0		-0.60884375	-2.633657470703125	0		1.7876566162109375	-0.5752486572265625	0		3.3021171875	0.20374160766601562	0		4.6111953125	0.27639266967773435	0		5.99799072265625	0.47802471923828127	0		-0.19192840576171874	5.8805634765625	0		
-5.043079853057861E-4	0.00634630298614502	0		0.4835033874511719	-2.331285400390625	0		-1.0818555908203125	0.1377141571044922	0		-0.6584854125976562	-2.62414990234375	0		1.777102783203125	-0.5623037719726562	0		3.297232177734375	0.19058102416992187	0		4.6051923828125	0.2542218475341797	0		5.99438916015625	0.4857989501953125	0		-0.059228836059570314	5.9026455078125	0		
-0.02624332809448242	0.0065350022315979	0		0.4407003173828125	-2.331881591796875	0		-1.0733685302734375	0.15447337341308592	0		-0.6344871215820312	-2.639610107421875	0		1.769562255859375	-0.5463955688476563	0		3.30266748046875	0.2032825927734375	0		4.60545654296875	0.25396180725097656	0		5.99953857421875	0.47644216918945315	0		-0.17698748779296875	5.89206005859375	0		
